#!OML:ASF I:\Actors\actors\Patient Classification 2\Patient 1\Session 1\actor1.ASF
:FULLY-SPECIFIED
:DEGREES
913
root -0.494191 18.9102 5.84481 9.75045 9.97549 -2.41705
lowerback 22.1071 3.46943 3.03395
upperback 1.69879 5.38042 0.770809
thorax -10.2744 2.41175 -2.49911
lowerneck -4.2682 -3.80766 -2.16661
upperneck -9.08716 -5.69117 -10.0025
head -2.44721 -2.52708 -2.8371
rclavicle 5.36719e-015 2.78299e-014
rhumerus 42.7491 9.0311 -49.0445
rradius 128.704
rwrist -1.28938
rhand -37.0163 -39.9295
rfingers 7.12502
rthumb -10.0903 -69.6676
lclavicle 5.36719e-015 2.78299e-014
lhumerus -49.5595 -27.6795 103.027
lradius 112.384
lwrist -2.94813
lhand -12.6503 -35.4817
lfingers 7.12502
lthumb 13.4303 -5.9347
rfemur 0 0 0
rtibia 0
rfoot 0 0
rtoes 0
lfemur -20.0192 -5.50859 -13.8942
ltibia 27.1963
lfoot -17.9577 7.04915
ltoes -55.6511
914
root -0.493707 18.9092 5.84954 9.74431 9.99185 -2.39049
lowerback 22.1008 3.44465 3.05083
upperback 1.6391 5.34934 0.726327
thorax -10.3336 2.39276 -2.55061
lowerneck -4.24543 -3.81322 -2.11772
upperneck -9.07963 -5.70195 -10.021
head -2.45166 -2.53343 -2.85171
rclavicle 4.13472e-014 -1.82882e-014
rhumerus 42.7055 9.04473 -49.147
rradius 128.682
rwrist -1.37758
rhand -37.0032 -39.9758
rfingers 7.12502
rthumb -10.0778 -69.7145
lclavicle 4.13472e-014 -1.82882e-014
lhumerus -49.627 -27.7327 102.985
lradius 112.426
lwrist -2.94639
lhand -12.636 -35.4699
lfingers 7.12502
lthumb 13.4441 -5.92373
rfemur 0 0 0
rtibia 0
rfoot 0 0
rtoes 0
lfemur -20.001 -5.46171 -13.9294
ltibia 27.2073
lfoot -17.9484 6.98895
ltoes -55.6653
915
root -0.493593 18.908 5.85406 9.70941 10.0017 -2.38294
lowerback 22.1092 3.42202 3.05882
upperback 1.60049 5.32007 0.695343
thorax -10.3793 2.37595 -2.58294
lowerneck -4.21926 -3.80878 -2.01779
upperneck -9.09084 -5.70278 -10.0392
head -2.46419 -2.53575 -2.87558
rclavicle -6.79844e-014 1.78906e-014
rhumerus 42.6563 9.04548 -49.2447
rradius 128.719
rwrist -1.42703
rhand -36.9554 -40.1497
rfingers 7.12502
rthumb -10.0316 -69.8906
lclavicle -6.79844e-014 1.78906e-014
lhumerus -49.6566 -27.7618 102.929
lradius 112.429
lwrist -2.975
lhand -12.6389 -35.4344
lfingers 7.12502
lthumb 13.4413 -5.8881
rfemur 0 0 0
rtibia 0
rfoot 0 0
rtoes 0
lfemur -19.9523 -5.42006 -13.9446
ltibia 27.2173
lfoot -17.9629 6.91824
ltoes -55.6528
916
root -0.494073 18.9074 5.85738 9.65919 9.99108 -2.3917
lowerback 22.1291 3.41685 3.07056
upperback 1.58957 5.31482 0.673131
thorax -10.3993 2.37152 -2.61435
lowerneck -4.18954 -3.81395 -1.87823
upperneck -9.14565 -5.72501 -10.1007
head -2.49647 -2.54693 -2.92165
rclavicle 6.54002e-014 -5.56597e-015
rhumerus 42.6223 9.02662 -49.2919
rradius 128.757
rwrist -1.44726
rhand -36.9663 -40.0414
rfingers 7.12502
rthumb -10.0422 -69.7818
lclavicle 6.54002e-014 -5.56597e-015
lhumerus -49.5982 -27.7958 102.893
lradius 112.384
lwrist -2.98233
lhand -12.6436 -35.4261
lfingers 7.12502
lthumb 13.4367 -5.87951
rfemur 0 0 0
rtibia 0
rfoot 0 0
rtoes 0
lfemur -19.8923 -5.3869 -13.9422
ltibia 27.2258
lfoot -17.9881 6.85897
ltoes -55.6606
917
root -0.494531 18.9071 5.85951 9.63742 9.97124 -2.39059
lowerback 22.1301 3.41813 3.07438
upperback 1.5811 5.31616 0.658654
thorax -10.4075 2.37123 -2.63326
lowerneck -4.18706 -3.8206 -1.80451
upperneck -9.16951 -5.74206 -10.1524
head -2.51063 -2.55561 -2.95281
rclavicle 2.78299e-015 3.97569e-015
rhumerus 42.6057 9.01051 -49.3377
rradius 128.781
rwrist -1.4989
rhand -36.8765 -39.9897
rfingers 7.12502
rthumb -9.95554 -69.7343
lclavicle 2.78299e-015 3.97569e-015
lhumerus -49.5527 -27.8624 102.885
lradius 112.399
lwrist -2.89249
lhand -12.6578 -35.4322
lfingers 7.12502
lthumb 13.423 -5.88467
rfemur 0 0 0
rtibia 0
rfoot 0 0
rtoes 0
lfemur -19.8628 -5.36337 -13.9481
ltibia 27.2312
lfoot -18.0085 6.8344
ltoes -55.663
918
root -0.49517 18.907 5.86118 9.62722 9.95781 -2.38445
lowerback 22.1275 3.41588 3.06662
upperback 1.56551 5.31272 0.666555
thorax -10.4254 2.36943 -2.61976
lowerneck -4.1985 -3.82941 -1.80462
upperneck -9.16809 -5.75585 -10.1906
head -2.51056 -2.56194 -2.96608
rclavicle -5.62561e-014 -1.03368e-014
rhumerus 42.6153 9.02958 -49.3701
rradius 128.781
rwrist -1.47507
rhand -36.7783 -40.0951
rfingers 7.12502
rthumb -9.86073 -69.8442
lclavicle -5.62561e-014 -1.03368e-014
lhumerus -49.5433 -27.915 102.895
lradius 112.442
lwrist -2.8035
lhand -12.6894 -35.4384
lfingers 7.12502
lthumb 13.3926 -5.88891
rfemur 0 0 0
rtibia 0
rfoot 0 0
rtoes 0
lfemur -19.8409 -5.35924 -13.9545
ltibia 27.23
lfoot -18.0251 6.82799
ltoes -55.553
919
root -0.495416 18.9072 5.86268 9.61107 9.94038 -2.39396
lowerback 22.138 3.40455 3.06439
upperback 1.54087 5.30081 0.685271
thorax -10.4617 2.36292 -2.59637
lowerneck -4.20196 -3.82128 -1.80555
upperneck -9.15979 -5.7468 -10.2318
head -2.50848 -2.55697 -2.98033
rclavicle -4.79071e-014 -1.07344e-014
rhumerus 42.6232 9.10643 -49.387
rradius 128.794
rwrist -1.396
rhand -36.7737 -40.351
rfingers 7.12502
rthumb -9.85636 -70.1003
lclavicle -4.79071e-014 -1.07344e-014
lhumerus -49.5491 -27.8692 102.904
lradius 112.448
lwrist -2.82344
lhand -12.7392 -35.4318
lfingers 7.12502
lthumb 13.3446 -5.87915
rfemur 0 0 0
rtibia 0
rfoot 0 0
rtoes 0
lfemur -19.8106 -5.35894 -13.9458
ltibia 27.2194
lfoot -18.0283 6.83682
ltoes -55.483
920
root -0.494401 18.907 5.8645 9.60482 9.89749 -2.37912
lowerback 22.1282 3.39922 3.03206
upperback 1.51846 5.28826 0.70154
thorax -10.4869 2.35794 -2.55695
lowerneck -4.13953 -3.80367 -1.80643
upperneck -9.19099 -5.7321 -10.262
head -2.53071 -2.54584 -2.98995
rclavicle -4.37326e-015 1.51076e-014
rhumerus 42.6084 9.17411 -49.3911
rradius 128.852
rwrist -1.48793
rhand -36.8038 -40.5237
rfingers 7.12502
rthumb -9.88538 -70.2717
lclavicle -4.37326e-015 1.51076e-014
lhumerus -49.5605 -27.7784 102.922
lradius 112.438
lwrist -2.87868
lhand -12.7708 -35.46
lfingers 7.12502
lthumb 13.3142 -5.90532
rfemur 0 0 0
rtibia 0
rfoot 0 0
rtoes 0
lfemur -19.7756 -5.36374 -13.9711
ltibia 27.2003
lfoot -18.0428 6.8779
ltoes -55.5429
921
root -0.493481 18.9067 5.86646 9.61178 9.85771 -2.32679
lowerback 22.0898 3.39617 2.96533
upperback 1.51565 5.26769 0.710532
thorax -10.4772 2.35213 -2.50086
lowerneck -4.08239 -3.79915 -1.83135
upperneck -9.24285 -5.73306 -10.2457
head -2.55697 -2.54202 -2.97914
rclavicle -3.04141e-014 -6.36111e-015
rhumerus 42.6194 9.20389 -49.3876
rradius 128.891
rwrist -1.65927
rhand -36.8744 -40.4049
rfingers 7.12502
rthumb -9.95349 -70.1496
lclavicle -3.04141e-014 -6.36111e-015
lhumerus -49.5243 -27.724 102.915
lradius 112.415
lwrist -2.88556
lhand -12.748 -35.55
lfingers 7.12502
lthumb 13.3361 -5.99672
rfemur 0 0 0
rtibia 0
rfoot 0 0
rtoes 0
lfemur -19.7483 -5.38698 -14.0345
ltibia 27.183
lfoot -18.0562 6.93369
ltoes -55.6097
922
root -0.493129 18.9066 5.86739 9.63622 9.83432 -2.29905
lowerback 22.0304 3.38547 2.93206
upperback 1.51441 5.24306 0.705889
thorax -10.45 2.34316 -2.47577
lowerneck -4.11274 -3.80327 -1.83087
upperneck -9.21904 -5.73251 -10.2123
head -2.54196 -2.54471 -2.96797
rclavicle -9.14409e-015 -1.90833e-014
rhumerus 42.6495 9.21972 -49.4292
rradius 128.9
rwrist -1.77534
rhand -36.8443 -40.2521
rfingers 7.12502
rthumb -9.92439 -69.9981
lclavicle -9.14409e-015 -1.90833e-014
lhumerus -49.4683 -27.7035 102.864
lradius 112.392
lwrist -2.88957
lhand -12.7174 -35.5972
lfingers 7.12502
lthumb 13.3656 -6.04588
rfemur 0 0 0
rtibia 0
rfoot 0 0
rtoes 0
lfemur -19.755 -5.4026 -14.0637
ltibia 27.1719
lfoot -18.0617 6.97354
ltoes -55.6112
923
root -0.493104 18.9064 5.86802 9.66808 9.80415 -2.30065
lowerback 21.945 3.3856 2.92604
upperback 1.51516 5.2386 0.703712
thorax -10.4029 2.3432 -2.46728
lowerneck -4.17699 -3.80421 -1.84031
upperneck -9.14492 -5.72218 -10.2065
head -2.5043 -2.54465 -2.96495
rclavicle 1.13307e-014 2.18663e-014
rhumerus 42.6459 9.20849 -49.4758
rradius 128.924
rwrist -1.86368
rhand -36.7221 -40.061
rfingers 7.12502
rthumb -9.80657 -69.8126
lclavicle 1.13307e-014 2.18663e-014
lhumerus -49.435 -27.7107 102.831
lradius 112.398
lwrist -2.89981
lhand -12.6935 -35.5344
lfingers 7.12502
lthumb 13.3887 -5.98458
rfemur 0 0 0
rtibia 0
rfoot 0 0
rtoes 0
lfemur -19.7792 -5.36172 -14.0626
ltibia 27.1631
lfoot -18.0593 6.96385
ltoes -55.5773
924
root -0.493869 18.9064 5.86858 9.67774 9.76187 -2.29763
lowerback 21.8849 3.39344 2.90713
upperback 1.52113 5.2426 0.708974
thorax -10.3653 2.34761 -2.44745
lowerneck -4.18613 -3.79514 -1.87648
upperneck -9.13887 -5.70766 -10.204
head -2.49856 -2.53677 -2.95784
rclavicle 4.57205e-015 -1.70955e-014
rhumerus 42.6075 9.20524 -49.4755
rradius 128.959
rwrist -1.85275
rhand -36.6432 -40.0946
rfingers 7.12502
rthumb -9.73039 -69.8498
lclavicle 4.57205e-015 -1.70955e-014
lhumerus -49.4365 -27.7051 102.829
lradius 112.414
lwrist -2.90681
lhand -12.649 -35.4501
lfingers 7.12502
lthumb 13.4315 -5.90316
rfemur 0 0 0
rtibia 0
rfoot 0 0
rtoes 0
lfemur -19.7832 -5.2957 -14.0704
ltibia 27.1621
lfoot -18.0448 6.93895
ltoes -55.5783
